<?xml version="1.0" encoding="UTF-8"?>
<svg id="_Слой_2" data-name="Слой 2" xmlns="http://www.w3.org/2000/svg" width="26.1" height="32.15" viewBox="0 0 26.1 32.15">
  <g id="_Слой_1-2" data-name=" Слой 1">
    <path d="M23.8.1c1.1-.4,2.3.5,2.3,1.6v21.7h0c0,1.7-.9,3.5-2.6,4.6-2.5,1.7-5.6,1.5-7-.5-1.7-2.3-.9-5.1,1.6-6.8,1.6-1.1,3.7-1.3,5.3-.8v-11.8c0-.3-.3-.5-.5-.4l-12.1,3.9c-.2,0-.3.2-.3.4v14.4c0,1.7-.9,3.5-2.6,4.6-2.5,1.7-5.6,1.5-7-.5C-.8,28.2,0,25.4,2.5,23.7c1.6-1.1,3.7-1.3,5.3-.8V6.9c0-.7.5-1.4,1.2-1.6L23.8.1Z" fill="#f37216"/>
  </g>
</svg>